<svg xmlns="http://www.w3.org/2000/svg" fill="none" viewBox="0 0 215 61" height="61" width="215">
<g opacity="0.7">
<path fill="white" d="M136.475 24.5492C136.337 27.2106 136.273 29.8797 136.044 32.5334C135.773 35.6787 135.096 38.7427 133.579 41.557C132.714 43.1606 131.611 44.5649 129.966 45.4495C129.119 45.9043 128.228 46.1279 127.261 45.8656C126.423 45.6372 125.798 44.7178 125.799 43.9204C125.819 31.3459 125.815 18.7715 125.804 6.19802C125.804 5.81091 125.906 5.67929 126.298 5.62412C127.774 5.41218 129.242 5.35411 130.679 5.82542C132.599 6.45448 133.825 7.83358 134.653 9.61237C135.453 11.3282 135.828 13.1583 136.061 15.0213C136.457 18.184 136.473 21.3642 136.475 24.5482V24.5492ZM113.352 0.466797C113.404 0.60519 113.421 0.666161 113.449 0.722292C113.604 1.01747 113.751 1.31748 113.92 1.60298C115.141 3.69146 116.618 5.53702 118.779 6.74192C118.881 6.79998 118.945 7.01096 118.945 7.15129C118.955 11.2334 118.953 15.3136 118.951 19.3947C118.951 19.506 118.94 19.6173 118.935 19.7054C116.628 20.3519 115.078 21.9061 113.709 23.7488C113.782 23.7565 113.808 23.7662 113.832 23.7604C113.931 23.7391 114.031 23.712 114.131 23.6888C115.726 23.3268 117.239 23.4885 118.646 24.3711C118.859 24.5056 118.961 24.6517 118.96 24.9247C118.951 31.2769 118.951 37.6291 118.96 43.9813C118.96 44.2329 118.862 44.3733 118.682 44.5233C117.821 45.2327 116.95 45.9324 116.121 46.6814C115.461 47.2786 114.859 47.9415 114.197 48.6093C114.289 48.6093 114.337 48.6131 114.383 48.6093C115.594 48.4699 116.803 48.2899 118.016 48.1989C119.59 48.0828 121.169 47.957 122.744 47.9783C124.906 48.0073 127.054 47.9686 129.181 47.5399C132.637 46.8431 135.651 45.3333 138.028 42.6816C140.053 40.4237 141.246 37.7391 141.995 34.8309C142.71 32.0534 142.896 29.2158 142.97 26.3686C143.057 22.9562 143.059 19.5447 142.608 16.1498C142.314 13.9442 141.861 11.7812 140.986 9.72269C139.739 6.78547 137.726 4.62537 134.675 3.52403C132.83 2.85819 130.91 2.63851 128.965 2.59012C126.284 2.52528 123.6 2.50302 120.92 2.3985C118.994 2.32398 117.081 2.08397 115.279 1.31942C114.657 1.05521 114.042 0.772617 113.352 0.466797Z"></path>
<path fill="white" d="M207.861 5.06762C209.98 4.23436 212.278 4.06403 214.597 4.02242C212.379 5.2815 210.997 7.31579 209.628 9.34039C208.724 10.6769 207.937 12.0928 207.099 13.4728L206.884 13.8261C206.782 12.926 206.714 12.0763 206.586 11.2344C206.304 9.37814 205.91 7.54999 204.929 5.91153C204.528 5.24086 204.025 4.66309 203.295 4.32727C202.517 3.96919 201.757 3.98758 201.021 4.45308C200.241 4.94665 199.681 5.64346 199.198 6.40801C198.062 8.20809 197.393 10.1969 196.879 12.2428C196.132 15.2139 195.77 18.2411 195.625 21.2964C195.441 25.1463 195.527 28.9922 195.962 32.8237C196.327 36.0309 196.935 39.1859 198.3 42.1444C198.878 43.3987 199.582 44.5755 200.642 45.493C200.891 45.7107 201.172 45.9033 201.464 46.0572C202.134 46.4114 202.611 46.3679 203.137 45.8259C203.518 45.4292 203.849 44.986 204.12 44.5068C204.948 43.0445 205.401 41.437 205.797 39.8169C206.504 36.9252 206.874 33.9938 206.744 31.011C206.69 29.7781 206.532 28.5587 206.064 27.4012C206.059 27.3886 206.057 27.376 206.052 27.3635C205.633 26.4083 205.087 25.5489 203.917 25.515C202.656 25.4782 201.657 26.0231 201.036 27.1573C200.526 28.0893 200.311 29.1103 200.276 30.1526C200.24 31.2394 200.307 32.3282 200.332 33.4179C200.334 33.565 200.351 33.7131 200.285 33.8912C200.203 33.7712 200.114 33.655 200.039 33.5312C197.935 30.0278 197.847 26.3812 199.281 22.6339C199.371 22.3987 199.377 22.2458 199.214 22.0242C198.406 20.9238 198.152 19.6338 197.975 18.2334C198.14 18.3679 198.245 18.4511 198.349 18.5382C200.528 20.3644 203.043 21.4513 205.84 21.8916C207.266 22.1161 208.704 22.2177 210.123 21.8655C212.643 21.2432 214.1 19.5612 214.764 17.1166C214.8 16.982 214.828 16.8456 214.868 16.6791C214.9 16.7246 214.929 16.7478 214.931 16.773C215.105 19.2273 215.008 21.6487 213.984 23.9404C213.769 24.4272 213.437 24.8627 213.175 25.3321C213.083 25.4985 212.988 25.694 212.988 25.8779C212.997 29.752 212.664 33.5892 211.747 37.3616C211.078 40.1063 210.125 42.7367 208.444 45.0488C206.954 47.1005 205.043 48.5647 202.526 49.1231C200.106 49.6583 197.981 48.9664 196.083 47.4663C194.184 45.9653 192.836 44.019 191.725 41.9015C189.864 38.3575 188.707 34.5822 188.178 30.6278C187.961 29.0058 187.929 27.3586 187.839 25.7211C187.823 25.4289 187.734 25.2972 187.469 25.1956C186.453 24.8027 185.444 24.3866 184.434 23.9791C184.332 23.9365 184.231 23.8901 184.062 23.8165C184.661 23.5378 185.211 23.3075 185.735 23.0268C186.412 22.6639 187.07 22.2652 187.728 21.8684C188.022 21.6922 188.132 21.4135 188.179 21.0671C188.846 16.2668 190.102 11.6524 192.57 7.43386C193.755 5.40925 195.203 3.60433 197.198 2.3075C198.67 1.35133 200.266 0.750334 202.055 0.860661C203.61 0.95744 204.871 1.71328 205.929 2.79236C206.616 3.49304 207.206 4.28856 207.862 5.06666L207.861 5.06762Z"></path>
<path fill="white" d="M10.1634 52.427C11.2687 53.2812 12.4826 53.9849 13.7733 54.5194C16.8944 55.8259 20.1413 56.2488 23.4995 55.8985C26.6138 55.5743 29.5482 54.6433 32.3422 53.2661C36.251 51.3373 40.367 50.0076 44.5808 48.9527C49.3926 47.7487 54.2731 46.93 59.2021 46.3871C63.0713 45.9613 66.9502 45.7154 70.8426 45.6699C75.0205 45.6216 79.1868 45.789 83.3222 46.4045C89.5354 47.3287 95.405 49.2237 100.679 52.7261C102.894 54.1971 104.909 55.8985 106.521 58.0363C106.72 58.3005 106.895 58.5812 107.092 58.8696C108.905 57.234 110.934 55.9391 113.069 54.8068C116.83 52.8132 120.814 51.4099 124.946 50.4131C129.854 49.2295 134.838 48.6304 139.886 48.5191C144.078 48.4262 148.252 48.6478 152.419 49.0736C159.054 49.7511 165.586 51.0353 172.114 52.3612C177.294 53.4052 182.487 54.385 187.691 55.3004C190.626 55.822 193.598 56.0794 196.585 56.0107C199.479 55.9449 202.319 55.5781 204.973 54.3171C206.949 53.3784 208.532 51.9973 209.654 50.1072C209.68 50.0637 209.705 50.0182 209.734 49.9766C209.749 49.9572 209.773 49.9447 209.831 49.8972C209.582 51.0179 209.084 51.9731 208.411 52.8393C206.909 54.7768 204.883 55.9362 202.601 56.7027C200.653 57.3569 198.637 57.6511 196.595 57.7905C196.448 57.8002 196.271 57.8156 196.165 57.8998C194.735 59.0457 193.058 59.6293 191.302 60.0096C188.512 60.6125 185.694 60.5903 182.87 60.2903C177.952 59.7677 173.26 58.3044 168.57 56.8372C163.971 55.3972 159.388 53.899 154.763 52.5422C150.643 51.3325 146.42 50.5969 142.134 50.2611C138.137 49.9507 134.119 50.0448 130.142 50.5418C125.886 51.0692 121.715 51.9451 117.702 53.4838C114.774 54.6065 111.996 56.0136 109.601 58.0673C108.78 58.7728 108.082 59.6225 107.327 60.4064C107.284 60.4509 107.242 60.4974 107.207 60.5342C104.944 56.8237 101.749 54.1574 97.9648 52.1406C94.5998 50.3463 90.9812 49.334 87.2398 48.7165C83.6706 48.1262 80.0714 47.9075 76.4586 47.9481C72.6427 47.9907 68.8441 48.2965 65.0659 48.8462C59.2592 49.6901 53.557 50.9734 48.0812 53.1064C45.8166 53.9881 43.6372 55.0933 41.4229 56.1065C38.5389 57.4295 35.56 58.4408 32.3993 58.8318C30.0224 59.126 27.6668 59.0922 25.3577 58.315C24.8747 58.1534 24.3173 58.2105 23.7947 58.1747C20.9649 57.9811 18.1844 57.5408 15.5298 56.4946C13.781 55.8056 12.1658 54.8978 10.8777 53.4974C10.5941 53.1877 10.3551 52.8383 10.0938 52.5064L10.1634 52.427Z"></path>
<path fill="white" d="M7.11017 41.7296C7.77794 41.6851 8.53088 41.7151 9.24801 41.5689C10.6658 41.2815 11.6868 40.3921 12.2443 39.0875C13.3321 36.5442 13.6495 33.8944 12.9391 31.1933C12.5365 29.6642 11.7255 28.3896 10.0832 27.9435C8.97219 27.6415 7.83794 27.7461 6.74435 28.1003C4.72361 28.7584 3.48001 30.2129 2.86256 32.1698C1.43798 36.6865 2.38641 40.7744 5.27718 44.4539C6.18884 45.6152 7.28437 46.5821 8.60153 47.274C10.7268 48.3918 12.9343 48.4325 15.1738 47.7086C18.4274 46.6566 21.1585 44.8729 22.9257 41.867C25.1836 38.0307 25.3965 34.1315 23.0341 30.2516C20.3911 25.9092 16.5083 23.1326 11.7013 21.6635C9.01961 20.8438 6.3911 21.2996 3.89325 22.5365L3.60292 22.6826C4.42747 20.9377 6.74919 19.2334 8.96445 18.7011C8.59475 18.3005 8.2086 17.8814 7.81956 17.4643C6.57498 16.1288 5.52687 14.6645 4.88136 12.9448C3.53614 9.36008 4.71297 5.32248 7.77117 2.97366C9.69125 1.49973 11.8175 0.674207 14.2795 0.87841C16.5141 1.06326 18.5184 1.75135 20.0611 3.47691C20.1337 3.55821 20.3572 3.57853 20.4772 3.53498C22.0644 2.97173 23.6999 2.66784 25.382 2.67462C26.0575 2.67752 26.733 2.78011 27.3824 2.83527C26.0807 4.45921 24.7635 6.02799 23.5306 7.66065C22.2979 9.29941 21.2599 11.0759 20.4375 12.9544C20.4114 12.5596 20.3891 12.1647 20.3582 11.7689C20.213 9.99301 19.8898 8.2539 19.0323 6.66963C18.1187 4.98182 16.8248 3.6937 14.9512 3.07238C12.9614 2.41235 9.66512 4.04984 9.7019 7.02191C9.72706 9.05426 10.5942 10.6995 11.8823 12.1802C13.0117 13.479 14.474 14.3432 15.888 15.2781C18.2329 16.8285 20.5527 18.4147 22.8735 19.998C23.0864 20.1431 23.2586 20.1431 23.4764 20.0551C25.5329 19.2189 26.641 17.655 26.9865 15.5016C27.0146 15.3274 27.0388 15.1523 27.0649 14.9761L27.1665 14.9645C27.3233 15.7775 27.5053 16.5856 27.6311 17.4033C27.7908 18.4476 27.815 19.4967 27.6175 20.5438C27.452 21.4206 27.1249 22.2142 26.4562 22.8684C26.5172 22.9526 26.5685 23.0368 26.6314 23.1113C28.8069 25.6847 29.977 28.6461 30.0089 32.0227C30.0341 34.6299 29.2986 37.0649 28.1218 39.3643C26.1184 43.278 23.2199 46.3324 19.2694 48.3299C17.2564 49.348 15.1273 49.8899 12.8501 49.7912C10.0532 49.6703 7.59503 48.6667 5.45429 46.9053C2.4677 44.4452 0.664721 41.2844 0.109212 37.451C-0.725986 31.6898 3.32226 26.0389 9.06703 25.0227C12.3227 24.4469 15.2086 25.2521 17.2642 27.9764C19.0062 30.2846 19.5336 32.9285 18.7052 35.7332C18.1284 37.6842 16.7696 38.9588 14.8321 39.5917C14.5671 39.6716 14.3377 39.8404 14.1827 40.0698C12.7959 41.9938 10.509 42.7206 8.04408 42.0335C7.70149 41.9367 7.36663 41.8138 7.11017 41.7296Z"></path>
<path fill="white" d="M26.7275 10.125H37.7022C37.169 10.8605 37.289 11.6628 37.5203 12.408C37.8786 13.5559 38.2976 14.684 38.7755 15.7875C41.0875 21.1529 43.4257 26.5077 45.7561 31.8663C45.7958 31.9573 45.8423 32.0463 45.9313 32.2311C45.9497 32.0337 45.9671 31.9302 45.9671 31.8256C45.969 27.2964 45.971 22.7652 45.9671 18.235C45.9652 16.4688 45.7929 14.7268 45.1793 13.0535C44.7719 11.9435 44.2057 10.9341 43.2118 10.1444H51.5493C51.168 10.396 50.6454 10.6573 50.2283 11.0347C49.2614 11.9115 48.8269 13.1019 48.4959 14.3252C48.1212 15.7403 47.936 17.1989 47.9452 18.6628C47.9491 24.4114 47.9365 30.162 47.9578 35.9107C47.9607 36.7391 48.0372 37.584 48.2124 38.3911C48.6246 40.2812 49.5692 41.7822 51.6335 42.4364H41.2037C42.306 41.6022 42.3031 40.466 42.1666 39.295C42.1445 39.1041 42.0949 38.9173 42.0195 38.7405C39.6058 33.167 37.1893 27.5955 34.7708 22.0239C34.7395 21.9407 34.677 21.8731 34.5966 21.8352V22.2678C34.5966 27.4909 34.6314 32.7141 34.5811 37.9362C34.5579 40.3605 35.9602 41.6816 37.7758 42.2942C37.8842 42.331 37.9945 42.3619 38.2045 42.4258H28.274C30.0374 41.8035 30.8503 40.4205 31.4058 38.8237C31.4716 38.635 31.4977 38.424 31.5026 38.2237C31.5142 37.5946 31.5055 36.9656 31.5065 36.3365C31.5132 31.3959 31.5229 26.4554 31.5268 21.5139C31.5277 20.038 31.5152 18.5631 31.5055 17.0872C31.4977 15.7943 31.0158 14.662 30.2958 13.6187C29.4577 12.4022 28.4008 11.3967 27.2298 10.5053C27.0904 10.3979 26.9492 10.2924 26.7266 10.125H26.7275Z"></path>
<path fill="white" d="M97.2872 12.0074C97.7052 12.0771 98.1059 12.1187 98.495 12.2125C101.433 12.9171 103.353 15.0772 103.771 18.0734C104.078 20.2655 104.214 22.4594 103.987 24.6641C103.813 26.3596 103.468 28.0126 102.508 29.4652C101.245 31.3805 99.365 31.7986 97.3965 31.4153C97.3617 31.4086 97.3307 31.3805 97.2872 31.3553V12.0074ZM97.5456 32.9986C98.823 33.2599 100.108 33.348 101.411 33.2309C104.832 32.9193 107.332 31.2769 108.775 28.1365C110.529 24.3147 110.526 20.4203 109.162 16.4931C108.357 14.18 106.864 12.4593 104.652 11.3793C102.625 10.3892 100.449 10.0282 98.2298 9.99825C95.6255 9.96244 93.0183 10.0563 90.413 10.0892C89.7268 10.0989 89.0407 10.0912 88.3555 10.0912C88.4019 10.2218 88.4619 10.2605 88.5229 10.2983C90.323 11.4112 91.2724 12.9974 91.2656 15.1411C91.253 18.7354 91.2627 22.3288 91.2627 25.9222C91.2627 30.7747 91.2549 35.6262 91.2666 40.4777C91.2704 42.2342 91.0159 43.8601 89.3407 44.9005C93.6338 44.4911 97.2533 45.9224 100.406 48.7251C100.355 48.6127 100.292 48.5057 100.22 48.4058C98.4166 45.8024 97.3549 42.9378 97.2862 39.7567C97.2378 37.5763 97.2755 35.392 97.2765 33.2115C97.2765 33.137 97.293 33.0625 97.3036 32.9793C97.3936 32.9861 97.471 32.9831 97.5456 32.9986Z"></path>
<path fill="white" d="M64.4522 29.3838C64.4522 29.7835 64.4687 30.1165 64.4493 30.4474C64.3119 32.8088 64.0245 35.147 63.2154 37.3884C62.8738 38.3339 62.4363 39.234 61.6969 39.9453C61.5225 40.1151 61.3319 40.2674 61.1279 40.4001C60.3294 40.9111 59.7052 40.8453 59.0142 40.1901C58.1006 39.323 57.6196 38.2023 57.217 37.0487C56.4477 34.8431 56.0847 32.5553 55.8834 30.2355C55.6648 27.7685 55.6664 25.287 55.8883 22.8203C56.1331 20.1299 56.558 17.4781 57.6516 14.9784C57.9981 14.1877 58.419 13.4396 59.0829 12.8599C59.1604 12.7921 59.2407 12.7273 59.3249 12.6712C60.0652 12.1815 60.5724 12.2579 61.1192 12.9625C61.7995 13.8402 62.1063 14.8816 62.2728 15.9461C62.9328 20.1909 62.836 24.4036 61.5953 28.5486C61.1114 30.1677 60.613 31.1036 59.2049 33.1127C61.6611 32.8079 63.1941 31.3484 64.4522 29.3838ZM49.4922 26.165C49.5144 29.2145 49.9277 32.0811 50.9603 34.8393C51.8071 37.1 52.9694 39.1614 54.8373 40.7573C57.4377 42.9793 60.6459 43.0325 63.3151 40.8986C64.7154 39.7798 65.7326 38.3552 66.5223 36.7661C68.3466 33.0953 68.9553 29.1806 68.7956 25.1217C68.6843 22.3055 68.1579 19.5753 67.0614 16.9691C66.232 14.9977 65.1306 13.2063 63.4747 11.806C60.8027 9.54811 57.5209 9.55392 54.846 11.8098C53.4466 12.9905 52.4401 14.4674 51.6562 16.1C50.1125 19.3179 49.529 22.7429 49.4922 26.165Z"></path>
<path fill="white" d="M85.3349 29.4422C85.2758 32.1462 85.0116 34.8037 84.1067 37.3587C83.797 38.2345 83.4032 39.0736 82.7567 39.7549C82.4789 40.0482 82.1412 40.2959 81.8005 40.5175C81.2363 40.8843 80.6808 40.7856 80.1553 40.4033C79.5688 39.9766 79.1778 39.391 78.8439 38.7649C78.0097 37.1971 77.5635 35.5005 77.2432 33.7711C76.469 29.5874 76.4167 25.3814 76.9471 21.1696C77.2074 19.1072 77.6052 17.0642 78.4665 15.1548C78.7801 14.4609 79.1991 13.8028 79.6511 13.1883C79.8814 12.8766 80.2714 12.6628 80.6237 12.4653C81.0302 12.2369 81.4095 12.3608 81.7424 12.6811C82.2883 13.2066 82.5815 13.8715 82.807 14.5712C83.2783 16.0365 83.4312 17.552 83.497 19.0811C83.618 21.8857 83.4932 24.6701 82.8002 27.405C82.2815 29.449 81.5179 31.3768 80.133 33.0133C80.7756 33.1653 82.1092 32.6649 83.138 31.8907C84.0283 31.221 84.7126 30.3655 85.3349 29.4422ZM89.6763 25.1162C89.5457 22.0638 88.9544 19.114 87.6595 16.3287C86.8049 14.4928 85.6987 12.8389 84.0767 11.5817C82.9541 10.7127 81.6999 10.1649 80.2598 10.1184C78.27 10.0565 76.6529 10.8946 75.2602 12.2311C73.4853 13.9344 72.3936 16.0577 71.6223 18.3572C70.5848 21.4483 70.2442 24.6314 70.4319 27.8792C70.5945 30.6936 71.1607 33.4169 72.3181 35.999C73.1775 37.9171 74.3021 39.6514 75.9822 40.9676C78.5168 42.9515 81.5228 42.9602 84.0709 40.9937C85.5033 39.8885 86.5339 38.461 87.3498 36.869C89.0492 33.5534 89.6667 29.9948 89.6783 26.3085C89.6783 25.9108 89.6928 25.513 89.6763 25.1162Z"></path>
<path fill="white" d="M159.495 28.8965C159.495 29.2933 159.513 29.6165 159.495 29.9378C159.354 32.2992 159.1 34.6461 158.252 36.8739C157.951 37.6656 157.47 38.3914 157.041 39.1298C156.916 39.3447 156.704 39.5169 156.509 39.6805C155.528 40.4934 154.769 40.4547 153.885 39.5402C153.166 38.795 152.747 37.8698 152.388 36.9194C151.624 34.889 151.246 32.7715 151.009 30.6269C150.738 28.1901 150.688 25.7339 150.859 23.2882C151.072 20.2203 151.482 17.1882 152.769 14.3507C153.005 13.83 153.345 13.3548 153.657 12.8709C153.766 12.7016 153.923 12.5583 154.074 12.4209C154.962 11.6215 155.673 11.7096 156.329 12.7093C156.955 13.6645 157.232 14.7504 157.385 15.8565C157.927 19.7683 157.853 23.6569 156.806 27.4903C156.306 29.3242 155.562 31.0469 154.309 32.5102C154.295 32.5247 154.301 32.5566 154.292 32.6283C156.691 32.334 158.237 30.8766 159.495 28.8965ZM163.86 26.7054C163.911 23.5911 163.586 20.8397 162.724 18.1657C161.964 15.8091 160.884 13.6258 159.102 11.8577C156.093 8.873 152.285 8.8943 149.281 11.8877C148.102 13.0635 147.232 14.4455 146.545 15.9485C145.331 18.606 144.745 21.4136 144.587 24.3198C144.403 27.6848 144.788 30.9753 145.93 34.1564C146.745 36.4278 147.89 38.5017 149.717 40.1373C152.278 42.4271 155.474 42.5945 158.158 40.5738C159.345 39.6815 160.268 38.5511 161.016 37.2814C162.996 33.9222 163.738 30.2359 163.861 26.7054H163.86Z"></path>
<path fill="white" d="M181.115 20.2742C180.534 18.9087 179.97 17.4928 179.334 16.1098C178.797 14.9436 178.166 13.8229 177.248 12.8977C177.102 12.7526 176.948 12.6171 176.779 12.5C176.062 11.9938 175.392 12.0451 174.765 12.6568C173.921 13.4804 173.501 14.5459 173.132 15.6279C172.393 17.7889 172.033 20.0265 171.816 22.2891C171.557 24.9976 171.559 27.7248 171.821 30.433C172.051 32.7973 172.332 35.1568 173.221 37.3827C173.488 38.0621 173.853 38.6986 174.305 39.2718C175.291 40.4951 176.971 40.6103 178.185 39.6105C179.038 38.9079 179.511 37.9576 179.851 36.9356C180.455 35.122 180.57 33.2899 179.902 31.4695C179.73 31.0293 179.48 30.6243 179.162 30.2743C178.68 29.7304 177.981 29.7546 177.462 30.2724C176.917 30.8153 176.739 31.5257 176.596 32.2486C176.567 32.3996 176.545 32.5515 176.519 32.7064C175.561 32.2147 175.348 30.7398 175.863 28.1752C174.471 27.3429 173.8 25.9783 173.207 24.5518C174.537 25.6686 176.07 25.5283 177.617 25.3299C178.901 25.1654 180.184 24.9428 181.472 24.8896C183.553 24.8025 185.076 25.7732 185.978 27.642C186.325 28.362 186.558 29.1381 186.859 29.9288C186.143 29.8611 185.525 29.7701 184.907 29.7517C183.984 29.7246 183.984 29.7459 183.899 30.6508C183.651 33.288 183.104 35.8478 181.82 38.1976C180.772 40.1186 179.319 41.611 177.179 42.2981C174.101 43.2872 171.208 42.3494 169.057 39.6851C167.521 37.7824 166.609 35.5768 165.97 33.2454C165.095 30.0488 164.93 26.8048 165.322 23.5192C165.629 20.9594 166.19 18.4693 167.271 16.1156C168.078 14.3562 169.133 12.7787 170.692 11.5845C171.915 10.6476 173.299 10.1008 174.833 9.98084C176.866 9.82212 178.451 10.7299 179.805 12.1487C179.901 12.2493 179.989 12.3616 180.081 12.468L180.369 12.8106C181.518 11.1867 183.172 10.5567 185.093 10.2963C183.44 13.5597 181.732 16.7369 181.115 20.2742Z"></path>
<path fill="white" d="M108.219 44.579C108.322 45.4161 108.403 46.2552 108.532 47.0885C108.764 48.5885 109.144 50.048 109.843 51.4077C110.366 52.4248 111.031 53.322 112.095 53.9394C110.274 54.4727 109.037 55.7269 107.817 57.0431C107.01 55.6592 105.698 54.8462 104.418 53.9685C105.812 53.3297 106.356 52.0532 106.841 50.7515C107.561 48.8169 107.901 46.7962 108.15 44.7571L108.169 44.5684L108.219 44.579Z"></path>
</g>
</svg>
