<svg xmlns:xlink="http://www.w3.org/1999/xlink" data-v-568265ce="" xmlns="http://www.w3.org/2000/svg" width="18" height="18" viewBox="0 0 18 18" fill="none" class="w-8 h-8 sm:w-[40px] sm:h-[40px] md:w-[50px] md:h-[50px] home-share__cta--item"><path d="M4.74446 9.58679H6.71753V17.7097C6.71753 17.8701 6.84747 18 7.00785 18H10.3533C10.5137 18 10.6436 17.8701 10.6436 17.7097V9.62508H12.9119C13.0593 9.62508 13.1834 9.51441 13.2003 9.36791L13.5448 6.37748C13.5542 6.29522 13.5282 6.21281 13.4731 6.15108C13.418 6.08931 13.3392 6.05394 13.2564 6.05394H10.6437V4.17937C10.6437 3.61431 10.948 3.32775 11.5482 3.32775C11.6337 3.32775 13.2564 3.32775 13.2564 3.32775C13.4168 3.32775 13.5467 3.19774 13.5467 3.03743V0.292465C13.5467 0.132082 13.4168 0.00214453 13.2564 0.00214453H10.9022C10.8856 0.00133594 10.8487 0 10.7944 0C10.3859 0 8.96602 0.0801913 7.84443 1.11199C6.60173 2.25541 6.77448 3.62443 6.81576 3.86181V6.05387H4.74442C4.58404 6.05387 4.4541 6.18381 4.4541 6.34419V9.29644C4.45414 9.45679 4.58407 9.58679 4.74446 9.58679Z" fill="#FFFFFF"></path></svg>