<svg xmlns:xlink="http://www.w3.org/1999/xlink" role="img" width="150" height="87" viewBox="0 0 150 87" fill="none" xmlns="http://www.w3.org/2000/svg" aria-labelledby="lmlx00rfi2fcpq8wkp"><title id="lmlx00rfi2fcpq8wkp">Gala Music, powered by Gala</title><g clip-path="url(#clip0_2491_4648)" fill="none"><path d="M52.833 34.7245L57.6503 10.5215L65.5023 28.0265L73.6362 10.5296L77.9671 34.7326H74.4266L72.2156 21.1354L65.4442 35.7633L58.8692 21.1191L56.4066 34.7163L52.833 34.7245Z" fill="#FFFFFF"></path><path d="M85.6581 12.207V25.7689C85.6581 27.7033 85.9796 29.1174 86.6226 30.0112C87.0914 30.6348 87.7023 31.1416 88.4062 31.4908C89.1101 31.84 89.8874 32.0219 90.6758 32.0219C91.4641 32.0219 92.2414 31.84 92.9453 31.4908C93.6492 31.1416 94.2601 30.6348 94.7289 30.0112C95.3682 29.1464 95.6898 27.7323 95.6934 25.7689V12.207H99.1427V26.7207C99.1427 29.1011 98.3919 31.0545 96.8902 32.581C96.093 33.4136 95.1271 34.0723 94.055 34.5145C92.9828 34.9567 91.8283 35.1726 90.6661 35.1482C89.5063 35.1725 88.3543 34.9565 87.2848 34.5142C86.2154 34.0719 85.2525 33.4133 84.4586 32.581C82.955 31.0473 82.2042 29.0938 82.2061 26.7207V12.2369L85.6581 12.207Z" fill="#FFFFFF"></path><path d="M117.564 15.5634L114.743 17.195C114.397 16.4994 113.883 15.8973 113.247 15.441C112.58 15.0892 111.824 14.9334 111.07 14.9922C110.315 15.051 109.594 15.322 108.991 15.7728C108.689 16.0108 108.447 16.313 108.281 16.6566C108.117 16.9964 108.034 17.3683 108.038 17.7444C108.038 18.8321 108.867 19.7159 110.525 20.3958L112.805 21.3177C114.662 22.0556 116.021 22.9566 116.882 24.0208C117.76 25.1393 118.216 26.5239 118.17 27.9368C118.204 28.8902 118.036 29.8402 117.676 30.7261C117.317 31.6121 116.773 32.4144 116.08 33.082C115.389 33.7516 114.568 34.2774 113.666 34.6278C112.763 34.9782 111.799 35.1461 110.829 35.1216C109.023 35.1867 107.261 34.5665 105.907 33.3893C104.632 32.2308 103.837 30.5991 103.521 28.4943L107.004 27.7383C107.159 29.0599 107.435 29.9737 107.833 30.4795C108.371 31.1245 109.1 31.5876 109.919 31.8037C110.738 32.0198 111.605 31.978 112.399 31.6842C112.86 31.4974 113.278 31.2198 113.626 30.8684C113.98 30.5132 114.258 30.091 114.442 29.6273C114.625 29.1636 114.712 28.6681 114.696 28.1707C114.698 27.7663 114.635 27.3641 114.508 26.9796C114.385 26.6113 114.189 26.2703 113.933 25.9761C113.639 25.6416 113.296 25.3519 112.916 25.1167C112.445 24.8196 111.95 24.563 111.434 24.3499L109.223 23.447C106.091 22.1381 104.525 20.2345 104.525 17.7362C104.511 16.9293 104.681 16.1295 105.022 15.3955C105.363 14.6615 105.866 14.0118 106.495 13.4939C107.846 12.336 109.591 11.7214 111.382 11.7725C114.02 11.7725 116.081 13.0361 117.564 15.5634Z" fill="#FFFFFF"></path><path d="M126.988 12.207V34.724H123.542V12.207H126.988Z" fill="#FFFFFF"></path><path d="M150 13.4181V17.4428C148.005 15.8003 145.939 14.9845 143.804 14.9954C142.69 14.9731 141.585 15.1836 140.561 15.613C139.536 16.0425 138.616 16.681 137.861 17.4864C137.069 18.2891 136.447 19.239 136.032 20.2807C135.617 21.3223 135.417 22.4348 135.443 23.5534C135.417 24.6594 135.618 25.7591 136.033 26.787C136.449 27.8149 137.071 28.7499 137.861 29.5362C138.628 30.3276 139.554 30.9538 140.58 31.3751C141.605 31.7964 142.709 32.0036 143.82 31.9837C144.883 32.0129 145.939 31.8134 146.916 31.399C147.433 31.1824 147.927 30.9165 148.391 30.6049C148.952 30.2409 149.49 29.8441 150.003 29.4165V33.5147C148.11 34.5898 145.964 35.1571 143.779 35.16C142.224 35.1847 140.68 34.9032 139.238 34.332C137.795 33.7608 136.484 32.9115 135.38 31.8341C134.276 30.7566 133.403 29.4728 132.811 28.0582C132.219 26.6436 131.92 25.1267 131.933 23.5969C131.914 20.7785 132.942 18.0504 134.824 15.9254C137.195 13.1788 140.263 11.8045 144.027 11.8027C146.13 11.8022 148.193 12.3603 150 13.4181V13.4181Z" fill="#FFFFFF"></path><path d="M21.259 0L1.26562 10.6439L21.2811 22.0084L28.9203 17.6573L25.7032 15.8407L21.2811 18.3562L7.86559 10.7418L21.2811 3.59781L22.5828 4.30758L38.0076 12.5094L41.28 10.652L21.259 0Z" fill="#FFFFFF"></path><path d="M12.5145 19.3293V22.9815L17.0361 25.5622V41.335L3.21707 32.97V14.0454L0 12.2207V34.7403L20.2532 46.9996V23.7239L12.5145 19.3293Z" fill="#FFFFFF"></path><path d="M40.0754 13.5974L22.2627 23.7246V32.6144L25.477 30.7843V25.5629L39.296 17.7119V32.9843L25.477 41.3357L22.2627 43.2828V46.9975L42.5131 34.7383V12.2051L40.0754 13.5974Z" fill="#FFFFFF"></path></g><path d="M90 65L80.4199 69.984L90.0066 75.3002L93.667 73.2707L92.1255 72.4143L90.0066 73.5913L83.5784 70.0286L90.0066 66.691L90.6304 67.0219L98.0253 70.8633L99.5933 69.984L90 65Z" fill="#FFFFFF"></path><path d="M85.806 74.059V75.7679L87.9765 76.9703V84.3503L81.355 80.4363V71.5803L79.8135 70.7266V81.2647L89.5167 87.0007V76.1089L85.806 74.059Z" fill="#FFFFFF"></path><path d="M99.0153 71.3662L90.4814 76.0996V80.2591L92.0216 79.399V76.9547L98.6432 73.2825V80.4271L92.0216 84.3346L90.4814 85.252V86.9902L100.185 81.2541V70.7109L99.0153 71.3662Z" fill="#FFFFFF"></path><path d="M112.1 77.4725V75.756H117.37C117.37 80.2273 114.478 81.6982 111.707 81.6982C108.092 81.6982 105.15 79.3099 105.15 76.2625C105.15 73.0395 107.885 70.7109 111.495 70.7109C114.36 70.7109 115.95 72.005 116.043 72.0864L114.953 73.57C114.875 73.4759 113.651 72.4885 111.524 72.4885C109.054 72.4885 107.49 74.1006 107.49 76.2408C107.49 78.1825 109.212 79.9232 111.722 79.9232C113.508 79.9232 114.926 78.8416 115.059 77.4763L112.1 77.4725Z" fill="#FFFFFF"></path><path d="M122.544 74.335L120.808 77.6687H124.32L122.544 74.335ZM126.211 81.2607L125.193 79.3292H119.902L118.884 81.2607H116.443L122.552 70.2734L128.661 81.2607H126.211Z" fill="#FFFFFF"></path><path d="M129.258 81.2619V70.7148H131.447V79.4639H136.307V81.2619H129.258Z" fill="#FFFFFF"></path><path d="M142.875 74.3362L144.651 77.6687H141.139L142.875 74.3362ZM136.783 81.2607H139.224L140.242 79.3292H145.529L146.547 81.2607H149L142.887 70.2734L136.783 81.2607Z" fill="#FFFFFF"></path><path d="M3.86779 77.2582H1.06598V76.1717H3.86779C4.41039 76.1717 4.84974 76.0886 5.18587 75.9226C5.52199 75.7565 5.76688 75.5258 5.92053 75.2305C6.07899 74.9353 6.15822 74.5985 6.15822 74.2202C6.15822 73.8741 6.07899 73.5489 5.92053 73.2444C5.76688 72.9399 5.52199 72.6954 5.18587 72.5108C4.84974 72.3217 4.41039 72.2271 3.86779 72.2271H1.3901V81.2097H0V71.1337H3.86779C4.66008 71.1337 5.32992 71.2652 5.87731 71.5282C6.42471 71.7911 6.84006 72.1556 7.12336 72.6216C7.40666 73.0829 7.54832 73.6112 7.54832 74.2063C7.54832 74.8522 7.40666 75.4035 7.12336 75.8603C6.84006 76.317 6.42471 76.6653 5.87731 76.9052C5.32992 77.1405 4.66008 77.2582 3.86779 77.2582Z" fill="#FFFFFF"></path><path d="M8.65031 77.5488V77.3897C8.65031 76.8499 8.73194 76.3493 8.8952 75.888C9.05846 75.422 9.29374 75.0183 9.60105 74.6769C9.90837 74.3309 10.2805 74.0633 10.7175 73.8741C11.1544 73.6804 11.6442 73.5835 12.1868 73.5835C12.7342 73.5835 13.2264 73.6804 13.6633 73.8741C14.1051 74.0633 14.4796 74.3309 14.7869 74.6769C15.099 75.0183 15.3367 75.422 15.5 75.888C15.6632 76.3493 15.7449 76.8499 15.7449 77.3897V77.5488C15.7449 78.0886 15.6632 78.5892 15.5 79.0505C15.3367 79.5119 15.099 79.9156 14.7869 80.2616C14.4796 80.603 14.1075 80.8706 13.6705 81.0643C13.2384 81.2535 12.7486 81.3481 12.2012 81.3481C11.6538 81.3481 11.1616 81.2535 10.7247 81.0643C10.2877 80.8706 9.91317 80.603 9.60105 80.2616C9.29374 79.9156 9.05846 79.5119 8.8952 79.0505C8.73194 78.5892 8.65031 78.0886 8.65031 77.5488ZM9.98279 77.3897V77.5488C9.98279 77.9225 10.0284 78.2755 10.1196 78.6076C10.2109 78.9352 10.3477 79.2259 10.5302 79.4796C10.7175 79.7333 10.9503 79.934 11.2288 80.0817C11.5073 80.2247 11.8315 80.2962 12.2012 80.2962C12.5661 80.2962 12.8854 80.2247 13.1591 80.0817C13.4376 79.934 13.6681 79.7333 13.8506 79.4796C14.033 79.2259 14.1699 78.9352 14.2611 78.6076C14.3572 78.2755 14.4052 77.9225 14.4052 77.5488V77.3897C14.4052 77.0206 14.3572 76.6723 14.2611 76.3447C14.1699 76.0125 14.0306 75.7196 13.8434 75.4658C13.6609 75.2075 13.4304 75.0045 13.1519 74.8568C12.8782 74.7092 12.5565 74.6354 12.1868 74.6354C11.8219 74.6354 11.5001 74.7092 11.2216 74.8568C10.9479 75.0045 10.7175 75.2075 10.5302 75.4658C10.3477 75.7196 10.2109 76.0125 10.1196 76.3447C10.0284 76.6723 9.98279 77.0206 9.98279 77.3897Z" fill="#FFFFFF"></path><path d="M19.3894 79.881L21.3917 73.7219H22.2704L22.0976 74.9468L20.0592 81.2097H19.2021L19.3894 79.881ZM18.0425 73.7219L19.7495 79.9502L19.8719 81.2097H18.9716L16.71 73.7219H18.0425ZM24.1863 79.9017L25.8141 73.7219H27.1394L24.8778 81.2097H23.9846L24.1863 79.9017ZM22.4649 73.7219L24.424 79.7772L24.6473 81.2097H23.7974L21.7014 74.933L21.5285 73.7219H22.4649Z" fill="#FFFFFF"></path><path d="M31.7418 81.3481C31.1992 81.3481 30.707 81.2604 30.2653 81.0851C29.8283 80.9052 29.4514 80.6537 29.1345 80.3308C28.8224 80.0078 28.5823 79.6249 28.4142 79.182C28.2462 78.7391 28.1621 78.2547 28.1621 77.7288V77.4381C28.1621 76.8291 28.2558 76.287 28.443 75.8118C28.6303 75.332 28.8848 74.926 29.2065 74.5939C29.5282 74.2617 29.8932 74.0102 30.3013 73.8395C30.7094 73.6688 31.132 73.5835 31.569 73.5835C32.126 73.5835 32.6061 73.6758 33.0095 73.8603C33.4176 74.0448 33.7513 74.3032 34.0106 74.6354C34.2699 74.9629 34.462 75.3505 34.5868 75.798C34.7117 76.2409 34.7741 76.7253 34.7741 77.2513V77.8256H28.9544V76.7807H33.4416V76.6838C33.4224 76.3516 33.3504 76.0287 33.2256 75.7149C33.1055 75.4012 32.9134 75.1429 32.6493 74.9399C32.3853 74.7369 32.0251 74.6354 31.569 74.6354C31.2664 74.6354 30.9879 74.6977 30.7335 74.8222C30.479 74.9422 30.2605 75.1221 30.078 75.362C29.8956 75.6019 29.7539 75.8949 29.6531 76.2409C29.5522 76.5869 29.5018 76.986 29.5018 77.4381V77.7288C29.5018 78.084 29.5522 78.4185 29.6531 78.7322C29.7587 79.0413 29.91 79.3135 30.1068 79.5488C30.3085 79.7841 30.551 79.9686 30.8343 80.1024C31.1224 80.2362 31.4489 80.3031 31.8138 80.3031C32.2844 80.3031 32.683 80.2108 33.0095 80.0263C33.336 79.8418 33.6217 79.5949 33.8666 79.2858L34.6733 79.9017C34.5052 80.1463 34.2915 80.3792 34.0322 80.6007C33.7729 80.8221 33.4536 81.0021 33.0743 81.1405C32.6998 81.2789 32.2556 81.3481 31.7418 81.3481Z" fill="#FFFFFF"></path><path d="M37.6624 74.8984V81.2097H36.3299V73.7219H37.6263L37.6624 74.8984ZM40.0968 73.6804L40.0896 74.8707C39.9792 74.8476 39.8735 74.8338 39.7727 74.8291C39.6767 74.8199 39.5662 74.8153 39.4414 74.8153C39.1341 74.8153 38.8628 74.8614 38.6275 74.9537C38.3922 75.046 38.1929 75.1752 38.0297 75.3413C37.8664 75.5073 37.7368 75.7057 37.6407 75.9364C37.5495 76.1625 37.4895 76.4116 37.4607 76.6838L37.0861 76.8914C37.0861 76.4393 37.1318 76.0148 37.223 75.6181C37.319 75.2213 37.4655 74.8707 37.6624 74.5662C37.8592 74.2571 38.1089 74.0172 38.4114 73.8465C38.7187 73.6711 39.0837 73.5835 39.5062 73.5835C39.6022 73.5835 39.7127 73.595 39.8375 73.6181C39.9624 73.6365 40.0488 73.6573 40.0968 73.6804Z" fill="#FFFFFF"></path><path d="M44.4184 81.3481C43.8758 81.3481 43.3836 81.2604 42.9419 81.0851C42.5049 80.9052 42.128 80.6537 41.811 80.3308C41.4989 80.0078 41.2588 79.6249 41.0908 79.182C40.9227 78.7391 40.8387 78.2547 40.8387 77.7288V77.4381C40.8387 76.8291 40.9323 76.287 41.1196 75.8118C41.3069 75.332 41.5614 74.926 41.8831 74.5939C42.2048 74.2617 42.5697 74.0102 42.9779 73.8395C43.386 73.6688 43.8086 73.5835 44.2455 73.5835C44.8025 73.5835 45.2827 73.6758 45.686 73.8603C46.0942 74.0448 46.4279 74.3032 46.6872 74.6354C46.9465 74.9629 47.1386 75.3505 47.2634 75.798C47.3883 76.2409 47.4507 76.7253 47.4507 77.2513V77.8256H41.631V76.7807H46.1182V76.6838C46.099 76.3516 46.027 76.0287 45.9021 75.7149C45.7821 75.4012 45.59 75.1429 45.3259 74.9399C45.0618 74.7369 44.7017 74.6354 44.2455 74.6354C43.943 74.6354 43.6645 74.6977 43.41 74.8222C43.1555 74.9422 42.9371 75.1221 42.7546 75.362C42.5721 75.6019 42.4305 75.8949 42.3296 76.2409C42.2288 76.5869 42.1784 76.986 42.1784 77.4381V77.7288C42.1784 78.084 42.2288 78.4185 42.3296 78.7322C42.4353 79.0413 42.5865 79.3135 42.7834 79.5488C42.9851 79.7841 43.2276 79.9686 43.5109 80.1024C43.799 80.2362 44.1255 80.3031 44.4904 80.3031C44.961 80.3031 45.3595 80.2108 45.686 80.0263C46.0126 79.8418 46.2983 79.5949 46.5431 79.2858L47.3498 79.9017C47.1818 80.1463 46.9681 80.3792 46.7088 80.6007C46.4495 80.8221 46.1302 81.0021 45.7509 81.1405C45.3763 81.2789 44.9322 81.3481 44.4184 81.3481Z" fill="#FFFFFF"></path><path d="M53.9186 79.7564V70.5801H55.2583V81.2097H54.0338L53.9186 79.7564ZM48.6751 77.5488V77.4035C48.6751 76.8314 48.7471 76.3124 48.8912 75.8464C49.04 75.3759 49.2489 74.9722 49.5178 74.6354C49.7915 74.2986 50.1156 74.0402 50.4902 73.8603C50.8695 73.6758 51.2921 73.5835 51.7578 73.5835C52.2476 73.5835 52.675 73.6665 53.0399 73.8326C53.4096 73.9941 53.7217 74.2317 53.9762 74.5454C54.2355 74.8545 54.4396 75.2282 54.5884 75.6665C54.7373 76.1048 54.8405 76.6007 54.8982 77.1544V77.791C54.8453 78.3401 54.7421 78.8337 54.5884 79.272C54.4396 79.7103 54.2355 80.084 53.9762 80.3931C53.7217 80.7022 53.4096 80.9398 53.0399 81.1059C52.6702 81.2673 52.238 81.3481 51.7434 81.3481C51.2873 81.3481 50.8695 81.2535 50.4902 81.0643C50.1156 80.8752 49.7915 80.6099 49.5178 80.2685C49.2489 79.9271 49.04 79.5257 48.8912 79.0644C48.7471 78.5984 48.6751 78.0932 48.6751 77.5488ZM50.0148 77.4035V77.5488C50.0148 77.9225 50.0532 78.2732 50.13 78.6007C50.2117 78.9283 50.3365 79.2166 50.5046 79.4658C50.6726 79.7149 50.8863 79.911 51.1456 80.054C51.4049 80.1924 51.7146 80.2616 52.0747 80.2616C52.5165 80.2616 52.879 80.1716 53.1623 79.9917C53.4504 79.8118 53.6809 79.5742 53.8538 79.2789C54.0266 78.9836 54.1611 78.663 54.2571 78.317V76.6492C54.1995 76.3954 54.1155 76.1509 54.005 75.9156C53.8994 75.6757 53.7601 75.4635 53.5873 75.279C53.4192 75.0898 53.2103 74.9399 52.9607 74.8291C52.7158 74.7184 52.4253 74.6631 52.0891 74.6631C51.7242 74.6631 51.4097 74.7369 51.1456 74.8845C50.8863 75.0275 50.6726 75.2259 50.5046 75.4797C50.3365 75.7288 50.2117 76.0194 50.13 76.3516C50.0532 76.6792 50.0148 77.0298 50.0148 77.4035Z" fill="#FFFFFF"></path><path d="M60.9843 70.5801H62.324V79.7564L62.2088 81.2097H60.9843V70.5801ZM67.5891 77.4035V77.5488C67.5891 78.0932 67.5219 78.5984 67.3874 79.0644C67.253 79.5257 67.0561 79.9271 66.7968 80.2685C66.5375 80.6099 66.2206 80.8752 65.8461 81.0643C65.4716 81.2535 65.0418 81.3481 64.5568 81.3481C64.0623 81.3481 63.6277 81.2673 63.2532 81.1059C62.8834 80.9398 62.5713 80.7022 62.3168 80.3931C62.0623 80.084 61.8583 79.7103 61.7046 79.272C61.5558 78.8337 61.4525 78.3401 61.3949 77.791V77.1544C61.4525 76.6007 61.5558 76.1048 61.7046 75.6665C61.8583 75.2282 62.0623 74.8545 62.3168 74.5454C62.5713 74.2317 62.8834 73.9941 63.2532 73.8326C63.6229 73.6665 64.0527 73.5835 64.5424 73.5835C65.0322 73.5835 65.4668 73.6758 65.8461 73.8603C66.2254 74.0402 66.5423 74.2986 66.7968 74.6354C67.0561 74.9722 67.253 75.3759 67.3874 75.8464C67.5219 76.3124 67.5891 76.8314 67.5891 77.4035ZM66.2494 77.5488V77.4035C66.2494 77.0298 66.2134 76.6792 66.1414 76.3516C66.0694 76.0194 65.9541 75.7288 65.7957 75.4797C65.6372 75.2259 65.4283 75.0275 65.1691 74.8845C64.9098 74.7369 64.5904 74.6631 64.2111 74.6631C63.875 74.6631 63.5821 74.7184 63.3324 74.8291C63.0875 74.9399 62.8786 75.0898 62.7058 75.279C62.5329 75.4635 62.3912 75.6757 62.2808 75.9156C62.1752 76.1509 62.0959 76.3954 62.0431 76.6492V78.317C62.12 78.6399 62.2448 78.9513 62.4177 79.2512C62.5953 79.5465 62.8306 79.7887 63.1235 79.9779C63.4212 80.167 63.7886 80.2616 64.2255 80.2616C64.5856 80.2616 64.893 80.1924 65.1474 80.054C65.4067 79.911 65.6156 79.7149 65.7741 79.4658C65.9373 79.2166 66.0574 78.9283 66.1342 78.6007C66.211 78.2732 66.2494 77.9225 66.2494 77.5488Z" fill="#FFFFFF"></path><path d="M71.3777 80.4346L73.5457 73.7219H74.9718L71.8458 82.3654C71.7738 82.5499 71.6778 82.7483 71.5577 82.9605C71.4425 83.1773 71.2937 83.3826 71.1112 83.5764C70.9287 83.7702 70.7078 83.927 70.4485 84.047C70.1941 84.1716 69.8891 84.2338 69.5338 84.2338C69.4282 84.2338 69.2937 84.22 69.1305 84.1923C68.9672 84.1646 68.852 84.1416 68.7847 84.1231L68.7775 83.0851C68.816 83.0897 68.876 83.0943 68.9576 83.0989C69.044 83.1081 69.1041 83.1128 69.1377 83.1128C69.4402 83.1128 69.6971 83.0735 69.9084 82.9951C70.1196 82.9213 70.2973 82.7944 70.4413 82.6145C70.5902 82.4392 70.7174 82.197 70.8231 81.8879L71.3777 80.4346ZM69.7859 73.7219L71.8098 79.535L72.1556 80.8844L71.1976 81.355L68.331 73.7219H69.7859Z" fill="#FFFFFF"></path><defs><clipPath id="clip0_2491_4648"><rect width="150" height="47"></rect></clipPath></defs></svg>