<svg xmlns:xlink="http://www.w3.org/1999/xlink" data-v-f3c9a8c0="" xmlns="http://www.w3.org/2000/svg" width="151" height="47" viewBox="0 0 151 47" fill="none" speechify-initial-font-size="16px" style="font-size: 16px;"><path data-v-f3c9a8c0="" d="M52.833 34.7245L57.6503 10.5215L65.5023 28.0265L73.6362 10.5296L77.9671 34.7326H74.4266L72.2156 21.1354L65.4442 35.7633L58.8692 21.1191L56.4066 34.7163L52.833 34.7245Z" fill="#FFFFFF" speechify-initial-font-size="16px" style="font-size: 16px;"></path><path data-v-f3c9a8c0="" d="M85.6584 12.208V25.7698C85.6584 27.7043 85.9799 29.1184 86.623 30.0121C87.0918 30.6358 87.7026 31.1426 88.4065 31.4918C89.1104 31.841 89.8878 32.0229 90.6761 32.0229C91.4644 32.0229 92.2418 31.841 92.9457 31.4918C93.6496 31.1426 94.2605 30.6358 94.7292 30.0121C95.3686 29.1474 95.6901 27.7333 95.6938 25.7698V12.208H99.1431V26.7216C99.1431 29.102 98.3922 31.0555 96.8905 32.582C96.0934 33.4146 95.1275 34.0732 94.0553 34.5155C92.9832 34.9577 91.8287 35.1735 90.6664 35.1492C89.5067 35.1735 88.3546 34.9575 87.2852 34.5152C86.2158 34.0729 85.2528 33.4143 84.4589 32.582C82.9554 31.0483 82.2046 29.0948 82.2064 26.7216V12.2379L85.6584 12.208Z" fill="#FFFFFF" speechify-initial-font-size="16px" style="font-size: 16px;"></path><path data-v-f3c9a8c0="" d="M117.564 15.5634L114.742 17.195C114.396 16.4994 113.883 15.8973 113.247 15.441C112.58 15.0892 111.824 14.9334 111.069 14.9922C110.315 15.051 109.593 15.322 108.991 15.7728C108.689 16.0108 108.446 16.313 108.281 16.6566C108.117 16.9964 108.034 17.3683 108.037 17.7444C108.037 18.8321 108.866 19.7159 110.525 20.3958L112.805 21.3177C114.662 22.0556 116.021 22.9566 116.882 24.0208C117.76 25.1393 118.216 26.5239 118.169 27.9368C118.204 28.8902 118.036 29.8402 117.676 30.7261C117.316 31.6121 116.773 32.4144 116.08 33.082C115.389 33.7516 114.568 34.2774 113.665 34.6278C112.763 34.9782 111.798 35.1461 110.829 35.1215C109.023 35.1867 107.261 34.5665 105.906 33.3893C104.631 32.2308 103.836 30.5991 103.521 28.4943L107.004 27.7383C107.158 29.0599 107.435 29.9737 107.833 30.4795C108.37 31.1245 109.1 31.5876 109.919 31.8037C110.738 32.0198 111.605 31.978 112.399 31.6842C112.86 31.4974 113.278 31.2198 113.626 30.8684C113.98 30.5132 114.258 30.091 114.441 29.6273C114.625 29.1636 114.712 28.6681 114.695 28.1707C114.698 27.7663 114.635 27.3641 114.507 26.9796C114.384 26.6113 114.189 26.2703 113.933 25.9761C113.639 25.6416 113.296 25.3519 112.915 25.1167C112.445 24.8196 111.949 24.563 111.434 24.3499L109.223 23.447C106.091 22.1381 104.525 20.2345 104.525 17.7362C104.511 16.9293 104.681 16.1295 105.022 15.3955C105.363 14.6615 105.866 14.0118 106.495 13.4939C107.846 12.336 109.591 11.7214 111.382 11.7725C114.02 11.7725 116.081 13.0361 117.564 15.5634Z" fill="#FFFFFF" speechify-initial-font-size="16px" style="font-size: 16px;"></path><path data-v-f3c9a8c0="" d="M126.989 12.208V34.7249H123.542V12.208H126.989Z" fill="#FFFFFF" speechify-initial-font-size="16px" style="font-size: 16px;"></path><path data-v-f3c9a8c0="" d="M150 13.4181V17.4428C148.005 15.8003 145.939 14.9845 143.804 14.9954C142.691 14.9731 141.585 15.1836 140.561 15.613C139.536 16.0425 138.616 16.681 137.862 17.4864C137.07 18.2891 136.448 19.239 136.033 20.2807C135.617 21.3223 135.417 22.4348 135.443 23.5534C135.417 24.6594 135.618 25.7591 136.034 26.787C136.449 27.8149 137.071 28.7499 137.862 29.5362C138.629 30.3276 139.554 30.9538 140.58 31.3751C141.606 31.7964 142.709 32.0036 143.82 31.9837C144.883 32.0129 145.94 31.8134 146.916 31.399C147.433 31.1824 147.927 30.9165 148.392 30.6049C148.953 30.2409 149.491 29.8441 150.003 29.4165V33.5147C148.11 34.5898 145.964 35.1571 143.779 35.16C142.224 35.1847 140.68 34.9032 139.238 34.332C137.796 33.7608 136.484 32.9115 135.38 31.8341C134.276 30.7566 133.403 29.4728 132.811 28.0582C132.219 26.6436 131.921 25.1267 131.933 23.5969C131.914 20.7785 132.943 18.0504 134.824 15.9254C137.196 13.1788 140.263 11.8045 144.028 11.8027C146.13 11.8022 148.194 12.3603 150 13.4181Z" fill="#FFFFFF" speechify-initial-font-size="16px" style="font-size: 16px;"></path><path data-v-f3c9a8c0="" d="M21.2592 0L1.26587 10.6439L21.2813 22.0084L28.9205 17.6573L25.7034 15.8407L21.2813 18.3562L7.86583 10.7418L21.2813 3.59781L22.5831 4.30758L38.0079 12.5094L41.2802 10.652L21.2592 0Z" fill="#FFFFFF" speechify-initial-font-size="16px" style="font-size: 16px;"></path><path data-v-f3c9a8c0="" d="M12.5145 19.3293V22.9815L17.0361 25.5622V41.335L3.21707 32.97V14.0454L0 12.2207V34.7403L20.2532 46.9995V23.7239L12.5145 19.3293Z" fill="#FFFFFF" speechify-initial-font-size="16px" style="font-size: 16px;"></path><path data-v-f3c9a8c0="" d="M40.0754 13.5974L22.2627 23.7246V32.6144L25.477 30.7843V25.5629L39.296 17.7119V32.9843L25.477 41.3357L22.2627 43.2828V46.9975L42.5131 34.7383V12.2051L40.0754 13.5974Z" fill="#FFFFFF" speechify-initial-font-size="16px" style="font-size: 16px;"></path></svg>