<svg xmlns:xlink="http://www.w3.org/1999/xlink" data-v-f3c9a8c0="" xmlns="http://www.w3.org/2000/svg" width="20" height="21" viewBox="0 0 20 21" fill="none" class="w-5 h-5 text-black dark:text-white" aria-hidden="true" speechify-initial-font-size="16px" style="font-size: 16px;"><mask id="path-1-outside-1_5117_15953" maskUnits="userSpaceOnUse" x="0" y="0.0273438" width="20" height="21" fill="none" speechify-initial-font-size="16px" style="font-size: 16px;"><rect fill="#FFFFFF" y="0.0273438" width="20" height="21" speechify-initial-font-size="16px" style="font-size: 16px;"></rect><path fill-rule="evenodd" clip-rule="evenodd" d="M18.8141 18.7836L14.5467 14.5393C17.5368 11.5307 17.6279 6.7012 14.7534 3.58197C11.8789 0.462738 7.05803 0.159802 3.81567 2.89466C0.57332 5.62951 0.0591425 10.4324 2.64909 13.7917C5.23905 17.1509 10.0148 17.8753 13.4844 15.4353L17.835 19.7858C18.1079 20.0402 18.5333 20.0327 18.7971 19.7688C19.0609 19.505 19.0684 19.0797 18.8141 18.8067V18.7836ZM2.50648 8.99715C2.50648 5.4262 5.40131 2.53137 8.97227 2.53137C12.5432 2.53137 15.4381 5.4262 15.4381 8.99715C15.4381 12.5681 12.5432 15.4629 8.97227 15.4629C5.40131 15.4629 2.50648 12.5681 2.50648 8.99715Z" speechify-initial-font-size="16px" style="font-size: 16px;" fill="none"></path></mask><path fill-rule="evenodd" clip-rule="evenodd" d="M18.8141 18.7836L14.5467 14.5393C17.5368 11.5307 17.6279 6.7012 14.7534 3.58197C11.8789 0.462738 7.05803 0.159802 3.81567 2.89466C0.57332 5.62951 0.0591425 10.4324 2.64909 13.7917C5.23905 17.1509 10.0148 17.8753 13.4844 15.4353L17.835 19.7858C18.1079 20.0402 18.5333 20.0327 18.7971 19.7688C19.0609 19.505 19.0684 19.0797 18.8141 18.8067V18.7836ZM2.50648 8.99715C2.50648 5.4262 5.40131 2.53137 8.97227 2.53137C12.5432 2.53137 15.4381 5.4262 15.4381 8.99715C15.4381 12.5681 12.5432 15.4629 8.97227 15.4629C5.40131 15.4629 2.50648 12.5681 2.50648 8.99715Z" fill="#FFFFFF" speechify-initial-font-size="16px" style="font-size: 16px;"></path><path d="M18.8141 18.7836H19.3141V18.5757L19.1667 18.4291L18.8141 18.7836ZM14.5467 14.5393L14.192 14.1868L13.8397 14.5413L14.1941 14.8938L14.5467 14.5393ZM13.4844 15.4353L13.838 15.0817L13.5407 14.7844L13.1968 15.0263L13.4844 15.4353ZM17.835 19.7858L17.4814 20.1394L17.4877 20.1456L17.4941 20.1516L17.835 19.7858ZM18.8141 18.8067H18.3141V19.0036L18.4483 19.1476L18.8141 18.8067ZM19.1667 18.4291L14.8993 14.1848L14.1941 14.8938L18.4615 19.1381L19.1667 18.4291ZM14.9013 14.8918C18.08 11.6934 18.1769 6.55916 15.1211 3.24313L14.3857 3.9208C17.0788 6.84324 16.9935 11.3681 14.192 14.1868L14.9013 14.8918ZM15.1211 3.24313C12.0652 -0.072888 6.94021 -0.394937 3.4933 2.51246L4.13805 3.27685C7.17584 0.71454 11.6926 0.998365 14.3857 3.9208L15.1211 3.24313ZM3.4933 2.51246C0.0463852 5.41986 -0.500231 10.5258 2.25312 14.097L3.04507 13.4864C0.618516 10.3391 1.10025 5.83917 4.13805 3.27685L3.4933 2.51246ZM2.25312 14.097C5.00647 17.6681 10.0835 18.4383 13.7721 15.8443L13.1968 15.0263C9.94606 17.3124 5.47162 16.6337 3.04507 13.4864L2.25312 14.097ZM13.1309 15.7888L17.4814 20.1394L18.1885 19.4323L13.838 15.0817L13.1309 15.7888ZM17.4941 20.1516C17.9641 20.5895 18.6964 20.5766 19.1507 20.1224L18.4436 19.4153C18.3701 19.4887 18.2518 19.4908 18.1758 19.42L17.4941 20.1516ZM19.1507 20.1224C19.6049 19.6682 19.6178 18.9358 19.1799 18.4659L18.4483 19.1476C18.519 19.2235 18.517 19.3419 18.4436 19.4153L19.1507 20.1224ZM19.3141 18.8067V18.7836H18.3141V18.8067H19.3141ZM3.00648 8.99715C3.00648 5.70234 5.67745 3.03137 8.97227 3.03137V2.03137C5.12517 2.03137 2.00648 5.15006 2.00648 8.99715H3.00648ZM8.97227 3.03137C12.2671 3.03137 14.9381 5.70234 14.9381 8.99715H15.9381C15.9381 5.15006 12.8194 2.03137 8.97227 2.03137V3.03137ZM14.9381 8.99715C14.9381 12.292 12.2671 14.9629 8.97227 14.9629V15.9629C12.8194 15.9629 15.9381 12.8442 15.9381 8.99715H14.9381ZM8.97227 14.9629C5.67745 14.9629 3.00648 12.292 3.00648 8.99715H2.00648C2.00648 12.8442 5.12517 15.9629 8.97227 15.9629V14.9629Z" fill="#FFFFFF" mask="url(#path-1-outside-1_5117_15953)" speechify-initial-font-size="16px" style="font-size: 16px;"></path></svg>