<svg xmlns:xlink="http://www.w3.org/1999/xlink" xmlns="http://www.w3.org/2000/svg" width="30" height="30" viewBox="0 0 30 30" fill="none">
<rect width="30" height="30" rx="15" fill="#0073FF"/>
<path d="M15.0008 7.5L8.72685 10.8976L15.0008 14.5256L17.3976 13.1386L16.3865 12.5557L15.0008 13.3599L10.7941 10.9247L15.0008 8.64758L15.4115 8.86898L19.212 10.9247L20.2502 11.4894L21.2748 10.8976L15.0008 7.5Z" fill="white" fill-opacity="0.9"/>
<path d="M12.2608 13.6672V14.8328L13.6781 15.6506V20.6927L9.34503 18.0226V11.982L8.33398 11.3991V18.5874L14.6847 22.5V15.0678L12.2608 13.6672Z" fill="white" fill-opacity="0.9"/>
<path d="M20.9045 11.8419L15.3166 15.0723V17.9096L16.3277 17.3268V15.6551L20.6608 13.1521V18.0271L16.3277 20.6973L15.3166 21.3163V22.5L21.6673 18.5874V11.3991L20.9045 11.8419Z" fill="white" fill-opacity="0.9"/>
</svg>